<svg width="18" height="18" viewBox="0 0 18 18" fill="none" xmlns="http://www.w3.org/2000/svg">
<path d="M17.3333 9.00002C17.3333 13.6021 13.602 17.3334 8.99996 17.3334C4.39788 17.3334 0.666626 13.6021 0.666626 9.00002C0.666626 4.39794 4.39788 0.666687 8.99996 0.666687C13.602 0.666687 17.3333 4.39794 17.3333 9.00002Z" fill="url(#paint0_linear_516_364)"/>
<path d="M7.87202 12.6279L4.53869 9.29456C4.37577 9.13164 4.37577 8.86789 4.53869 8.70539L5.12786 8.11623C5.29077 7.95331 5.55452 7.95331 5.71702 8.11623L8.16661 10.5658L12.6995 6.03289C12.8624 5.86998 13.1262 5.86998 13.2887 6.03289L13.8779 6.62206C14.0408 6.78498 14.0408 7.04873 13.8779 7.21123L8.46119 12.6279C8.29869 12.7908 8.03452 12.7908 7.87202 12.6279Z" fill="url(#paint1_linear_516_364)"/>
<defs>
<linearGradient id="paint0_linear_516_364" x1="3.10746" y1="3.10752" x2="14.8925" y2="14.8925" gradientUnits="userSpaceOnUse">
<stop stop-color="#9DFFCE"/>
<stop offset="1" stop-color="#50D18D"/>
</linearGradient>
<linearGradient id="paint1_linear_516_364" x1="4.41661" y1="9.33039" x2="13.9999" y2="9.33039" gradientUnits="userSpaceOnUse">
<stop offset="0.824" stop-color="#135D36"/>
<stop offset="0.931" stop-color="#125933"/>
<stop offset="1" stop-color="#11522F"/>
</linearGradient>
</defs>
</svg>
