<svg width="168" height="168" viewBox="0 0 168 168" fill="none" xmlns="http://www.w3.org/2000/svg">
<path d="M81.1754 25.5149L1 56.3274L68.1521 167.667L148.447 137.155L81.1754 25.5149Z" fill="#9724D6" stroke="#0D0D0D" stroke-width="0.15" stroke-linecap="round" stroke-linejoin="round"/>
<path d="M88.876 19.1619L7.45386 45.7583L68.451 160.895L149.992 134.639L88.876 19.1619Z" fill="#9724D6" stroke="#0D0D0D" stroke-width="0.15" stroke-linecap="round" stroke-linejoin="round"/>
<path d="M96.8491 13.2301L14.3982 35.45L68.9831 154.104L151.552 132.263L96.8491 13.2301Z" fill="#9724D6" stroke="#0D0D0D" stroke-width="0.15" stroke-linecap="round" stroke-linejoin="round"/>
<path d="M105.677 7.81149L22.4148 25.3958L70.1118 147.386L153.493 130.202L105.677 7.81149Z" fill="#FF8EFF" stroke="#0D0D0D" stroke-width="0.15" stroke-linecap="round" stroke-linejoin="round"/>
<path d="M103.957 21.8976L95.1498 16.8623L40.1891 28.3923H40.0504L34.2712 36.4845L72.3897 133.138L83.3141 137.714H83.3938L137.384 126.624L141.244 118.891L103.957 21.8976Z" fill="#FF8EFF" stroke="#0D0D0D" stroke-width="0.15" stroke-linecap="round" stroke-linejoin="round"/>
<g style="mix-blend-mode:color-dodge">
<g style="mix-blend-mode:color-dodge">
<g style="mix-blend-mode:color-dodge">
<path d="M113.593 46.9726L83.3915 137.732H83.3118L72.3677 133.136L56.8511 93.7309L81.1945 19.8172L95.1475 16.8797L103.955 21.8952L113.593 46.9726Z" fill="white"/>
</g>
</g>
</g>
<path d="M103.957 21.8976L95.1498 16.8623L40.1891 28.3923H40.0504L34.2712 36.4845L72.3897 133.138L83.3141 137.714H83.3938L137.384 126.624L141.244 118.891L103.957 21.8976Z" stroke="#0D0D0D" stroke-width="0.2" stroke-linecap="round" stroke-linejoin="round"/>
<path d="M81.6414 86.4679C88.361 84.8988 97.2562 79.4548 96.6021 70.097L102.378 68.8453L104.997 61.1964L95.3699 63.1827C94.9848 61.6905 94.2896 60.3018 93.3318 59.1149C92.3741 57.9274 91.1771 56.9697 89.8247 56.3083L98.758 54.481L101.396 46.5333L63.9277 54.481L61.4824 62.2887L72.4574 59.9839C82.3158 57.878 86.3009 62.6863 86.9556 64.8714L67.4324 69.1232L65.0062 76.6334L87.9955 71.8256C89.0735 78.5012 81.064 80.031 75.0759 81.6601L69.6461 83.0709L71.8027 88.5339L99.3551 108.7L108.982 106.554C99.6634 99.581 90.9795 93.5012 81.6414 86.4679Z" fill="#CC36CC" stroke="#0D0D0D" stroke-width="0.15" stroke-linecap="round" stroke-linejoin="round"/>
<path d="M156.685 124.909C146.325 121.468 146.153 117.407 147.89 104.621L150.872 84.3333L145.445 104.111C142.078 117.429 138.688 119.892 129.293 119.293L117.667 118.05L128.714 121.38C138.345 124.443 139.847 128.749 137.894 141.956L134.527 162.111L139.74 142.133C143.515 127.972 146.453 126.352 156.256 127.261L167.667 128.394L156.685 124.909Z" fill="white" stroke="#020203" stroke-width="0.2" stroke-linecap="round" stroke-linejoin="round"/>
<path d="M48.5362 34.9381C39.8433 32.0601 39.6981 28.6631 41.1564 17.9691L43.6588 1L39.1046 17.542C36.279 28.6815 33.435 30.7423 25.5511 30.2411L15.7954 29.2012L25.0654 31.9863C33.1469 34.5482 34.407 38.15 32.7689 49.1964L29.9427 66.0548L34.3165 49.3452C37.485 37.5 39.9505 36.1446 48.1761 36.9059L57.7517 37.853L48.5362 34.9381Z" fill="white" stroke="#020203" stroke-width="0.2" stroke-linecap="round" stroke-linejoin="round"/>
</svg>
