<svg width="250" height="200" viewBox="0 0 250 200" fill="none" xmlns="http://www.w3.org/2000/svg">
<path d="M94.8945 58.253L73.0219 46.2754L94.7033 34.2586H70.2486L82.7219 13.9253L60.9861 25.8376V2.00002L48.5674 22.5162L35.9441 1.96078V25.8376L14.5087 13.9646L26.7361 34.2586H2.04919L23.867 46.2754L2.24046 58.253H26.7361L14.2218 78.5863L35.9441 66.7655V90.5247L48.5674 70.2438L60.9861 90.5508V66.7655L82.8174 79.0047L70.2486 58.253H94.8945Z" fill="#FF784B" stroke="#0D0D0D" stroke-width="0.5" stroke-linejoin="round"/>
<path d="M217.959 130.067L90.3039 147.366L64.9615 31.0676L192.631 13.7681L217.959 130.067Z" fill="white" stroke="#0D0D0D" stroke-width="0.5" stroke-linecap="round" stroke-linejoin="round"/>
<path d="M200.007 96.9983L93.2408 111.473L77.5707 39.542L184.337 25.08L200.007 96.9983Z" fill="#0D0D0D" stroke="#0D0D0D" stroke-width="0.5" stroke-linecap="round" stroke-linejoin="round"/>
<g style="mix-blend-mode:screen">
<g style="mix-blend-mode:screen">
<path d="M166.319 27.5251L139.911 105.145L183.06 99.3465L193.306 66.0132L184.339 25.08L166.319 27.5251Z" fill="white"/>
</g>
</g>
<path d="M217.973 130.054L184.897 170.237L57.283 187.589L90.3307 147.406L217.973 130.054Z" fill="#FF784B" stroke="#0D0D0D" stroke-width="0.5" stroke-linejoin="round"/>
<path d="M93.9645 153.472L202.07 138.827L181.222 164.156L73.144 178.801L93.9645 153.472Z" fill="#FF784B" stroke="#0D0D0D" stroke-width="0.5" stroke-linejoin="round"/>
<path d="M64.9621 31.0551L31.9144 71.2378L57.257 187.549L90.291 147.366L64.9621 31.0551Z" fill="#9772FF" stroke="#0D0D0D" stroke-width="0.5" stroke-linejoin="round"/>
<path d="M71.6535 87.3211L47.4184 116.781L40.1371 83.3068L64.3584 53.8595L71.6535 87.3211Z" fill="#9772FF" stroke="#0D0D0D" stroke-width="0.5" stroke-linejoin="round"/>
<path d="M203.915 114.951L97.1479 129.413" stroke="#0D0D0D" stroke-width="0.5" stroke-linecap="round" stroke-linejoin="round"/>
<path d="M108.569 123.803L96.2881 125.476L94.8947 119.056L107.162 117.395L108.569 123.803Z" fill="#9772FF" stroke="#0D0D0D" stroke-width="0.5" stroke-linecap="round" stroke-linejoin="round"/>
<path d="M124.937 121.594L112.669 123.267L111.276 116.834L123.53 115.173H123.558L124.937 121.594Z" fill="#9772FF" stroke="#0D0D0D" stroke-width="0.5" stroke-linecap="round" stroke-linejoin="round"/>
<path d="M200.007 96.9983L93.2408 111.473L77.5707 39.542L184.337 25.08L200.007 96.9983Z" stroke="#0D0D0D" stroke-width="0.5" stroke-linecap="round" stroke-linejoin="round"/>
<path d="M201.88 52.1959C211.637 47.193 218.725 41.6718 217.713 39.864C216.701 38.0561 207.971 40.6463 198.216 45.6492C188.459 50.652 181.37 56.1731 182.382 57.981C183.394 59.7888 192.124 57.1988 201.88 52.1959Z" fill="white" stroke="#0D0D0D" stroke-width="0.5" stroke-linecap="round" stroke-linejoin="round"/>
<path d="M194.269 69.8436C201.318 66.2287 206.441 62.2405 205.711 60.9354C204.98 59.6305 198.673 61.5032 191.624 65.1181C184.574 68.733 179.451 72.7212 180.182 74.0263C180.912 75.3312 187.219 73.4585 194.269 69.8436Z" fill="white" stroke="#0D0D0D" stroke-width="0.5" stroke-linecap="round" stroke-linejoin="round"/>
<path d="M166.153 83.0447C166.053 82.5163 165.813 82.0212 165.457 81.6063L136.767 48.707C136.43 48.3041 135.99 47.9921 135.488 47.8019C134.987 47.6117 134.443 47.5499 133.909 47.6225C133.375 47.6952 132.871 47.8996 132.444 48.216C132.018 48.5323 131.686 48.9494 131.48 49.4262C131.48 49.4262 118.091 87.9874 118.064 88.0527C117.917 88.5625 117.9 89.099 118.016 89.6161C118.132 90.1333 118.377 90.6161 118.73 91.0231C119.083 91.4302 119.533 91.7496 120.043 91.9541C120.552 92.1586 121.107 92.2424 121.657 92.1979L163.763 86.4706C164.16 86.4072 164.541 86.2667 164.88 86.0573C165.218 85.8478 165.509 85.5741 165.733 85.2531C165.957 84.932 166.11 84.5704 166.182 84.1906C166.255 83.8108 166.245 83.4208 166.153 83.0447Z" fill="#FFDF0D" stroke="#0D0D0D" stroke-width="0.5" stroke-linejoin="round"/>
<path d="M139.254 82.3129H139.131V82.2084L138.312 78.364V78.2464L138.421 78.1809L142.342 77.6448H142.465L142.533 77.7493L143.353 81.5939V81.7115H143.243L139.254 82.3129Z" fill="#0D0D0D" stroke="#0D0D0D" stroke-width="0.5" stroke-linecap="round" stroke-linejoin="round"/>
<path d="M137.887 75.9967H137.764L137.696 75.8922L134.964 62.96V62.8422H135.073L138.994 62.3061H139.116V62.4108L141.849 75.3561V75.4606H141.74L137.887 75.9967Z" fill="#0D0D0D" stroke="#0D0D0D" stroke-width="0.5" stroke-linecap="round" stroke-linejoin="round"/>
<path d="M166.153 83.0447C166.053 82.5163 165.813 82.0212 165.457 81.6063L136.767 48.707C136.43 48.3041 135.99 47.9921 135.488 47.8019C134.987 47.6117 134.443 47.5499 133.909 47.6225C133.375 47.6952 132.871 47.8996 132.444 48.216C132.018 48.5323 131.686 48.9494 131.48 49.4262C131.48 49.4262 118.091 87.9874 118.064 88.0527C117.917 88.5625 117.9 89.099 118.016 89.6161C118.132 90.1333 118.377 90.6161 118.73 91.0231C119.083 91.4302 119.533 91.7496 120.043 91.9541C120.552 92.1586 121.107 92.2424 121.657 92.1979L163.763 86.4706C164.16 86.4073 164.541 86.2667 164.88 86.0573C165.218 85.8478 165.509 85.5741 165.733 85.2531C165.957 84.932 166.11 84.5704 166.182 84.1906C166.255 83.8108 166.245 83.4208 166.153 83.0447Z" stroke="#020203" stroke-width="0.5" stroke-linecap="round" stroke-linejoin="round"/>
<path d="M247.004 139.979C248.109 143.782 248.248 147.782 247.414 151.648C246.58 155.514 244.797 159.134 242.209 162.208C233.467 172.381 217.072 170.733 209.189 169.936C176.087 166.601 147.711 177.363 124.418 188.334C110.66 194.872 98.1328 198.035 86.9301 198.035C79.9449 198.11 73.0308 196.684 66.6969 193.865C45.9312 184.476 39.8381 162.692 39.2918 160.613L28.5945 130.459L33.7996 128.772L44.524 159.096C44.5318 159.178 44.5318 159.262 44.524 159.344C44.524 159.553 49.989 180.658 69.006 189.197C82.9547 195.486 100.756 193.629 121.918 183.679C145.963 172.368 175.199 161.279 209.68 164.771C220.76 165.882 231.855 165.948 237.891 158.926C240.223 156.111 241.648 152.708 241.992 149.132C242.57 143.933 241.217 138.706 238.168 134.368C235.121 130.03 230.572 126.859 225.324 125.412C222.543 124.675 219.67 124.305 216.785 124.313L215.584 118.769C215.584 118.769 240.201 116.899 247.004 139.979Z" fill="#FFDF0D" stroke="#0D0D0D" stroke-width="0.5" stroke-linejoin="round"/>
<path d="M209.764 164.77C197.229 163.526 184.57 164.081 172.207 166.418C172.457 168.172 172.948 169.887 173.669 171.518C185.366 169.34 197.336 168.829 209.189 170.001L212.455 170.314C213.072 168.627 213.453 166.868 213.588 165.084C212.318 165.006 211.047 164.901 209.764 164.77Z" fill="#0D0D0D" stroke="#0D0D0D" stroke-width="0.5" stroke-linecap="round" stroke-linejoin="round"/>
<path d="M197.261 183.744C208.699 183.744 217.971 174.84 217.971 163.856C217.971 152.872 208.699 143.967 197.261 143.967C185.822 143.967 176.55 152.872 176.55 163.856C176.55 174.84 185.822 183.744 197.261 183.744Z" fill="#9772FF" stroke="#0D0D0D" stroke-width="0.5" stroke-linejoin="round"/>
<path d="M190.797 158.008C193.068 155.821 193.668 152.867 192.137 151.412C190.606 149.956 187.524 150.55 185.253 152.737C182.983 154.925 182.383 157.878 183.914 159.334C185.445 160.789 188.527 160.196 190.797 158.008Z" fill="white" stroke="#0D0D0D" stroke-width="0.5" stroke-linecap="round" stroke-linejoin="round"/>
<path d="M44.5086 159.58C44.5086 159.501 44.5088 159.423 44.4405 159.344L34.741 131.885L29.577 133.558L39.2219 160.861C39.3176 161.24 39.6043 162.247 40.1098 163.712C41.8461 163.08 43.501 162.26 45.0416 161.266C44.6865 160.259 44.5086 159.619 44.5086 159.58Z" fill="#0D0D0D" stroke="#0D0D0D" stroke-width="0.5" stroke-linecap="round" stroke-linejoin="round"/>
<path d="M52.4893 149.747L44.0463 125.883L18.3486 134.212L26.7914 158.089C28.0074 161.542 34.7562 162.483 41.8193 160.182C48.8826 157.88 53.7051 153.212 52.4893 149.747Z" fill="#FFDF0D" stroke="#0D0D0D" stroke-width="0.5" stroke-linejoin="round"/>
<path d="M33.3254 136.18C40.4203 133.876 45.1776 129.203 43.9512 125.742C42.7246 122.282 35.9785 121.344 28.8836 123.648C21.7887 125.952 17.0315 130.625 18.2581 134.085C19.4847 137.546 26.2305 138.483 33.3254 136.18Z" fill="white" stroke="#0D0D0D" stroke-width="0.5" stroke-linejoin="round"/>
<path d="M27.2223 132.873C28.9442 132.313 30.0985 131.179 29.8004 130.338C29.5024 129.497 27.8647 129.268 26.1428 129.827C24.4209 130.386 23.267 131.522 23.5649 132.362C23.8631 133.203 25.5004 133.432 27.2223 132.873Z" fill="#0D0D0D" stroke="#0D0D0D" stroke-width="0.5" stroke-linecap="round" stroke-linejoin="round"/>
<path d="M36.0674 130.007C37.7893 129.448 38.9436 128.313 38.6457 127.472C38.3475 126.631 36.7098 126.402 34.9879 126.961C33.2662 127.521 32.1121 128.656 32.41 129.497C32.7082 130.338 34.3455 130.566 36.0674 130.007Z" fill="#0D0D0D" stroke="#0D0D0D" stroke-width="0.5" stroke-linecap="round" stroke-linejoin="round"/>
</svg>
