<svg width="34" height="34" viewBox="0 0 34 34" fill="none" xmlns="http://www.w3.org/2000/svg">
<circle cx="16.82" cy="16.82" r="16.82" fill="white"/>
<path d="M23.9755 23.9665H15.5662V12.5855L22.8374 16.5688L23.9755 23.9665Z" fill="#2F2E41"/>
<path d="M17.1196 21.9578C20.1349 21.9578 22.5792 19.5135 22.5792 16.4982C22.5792 13.4829 20.1349 11.0385 17.1196 11.0385C14.1043 11.0385 11.6599 13.4829 11.6599 16.4982C11.6599 19.5135 14.1043 21.9578 17.1196 21.9578Z" fill="#FFB6B6"/>
<path d="M13.9853 22.7652L13.7386 20.2719L18.6641 19.3509L21.5726 26.4324L16.5144 32.2493L12.9104 25.1678L13.9853 22.7652Z" fill="#FFB6B6"/>
<path d="M14.2477 10.2937C14.9127 9.17657 16.1341 8.4101 17.4293 8.29713C18.7244 8.18416 20.0601 8.7276 20.9085 9.7127C21.4141 10.2997 21.7456 11.0186 22.2384 11.6164C23.2988 12.9028 25.1071 13.655 25.5704 15.2565C25.7726 15.9553 25.6718 16.7014 25.5695 17.4217C25.4819 18.0391 25.3942 18.6565 25.3065 19.2738C25.2383 19.7543 25.1729 20.2608 25.353 20.7113C25.5644 21.24 26.0702 21.5862 26.3972 22.0522C26.9537 22.8452 26.913 24.0062 26.3024 24.7583C26.0376 25.0844 25.6865 25.3304 25.4089 25.6457C25.1313 25.9611 24.9254 26.3922 25.0416 26.7959C25.2644 27.5692 26.4772 27.7547 26.6102 28.5484C26.6782 28.9542 26.3979 29.3595 26.0307 29.5451C25.6634 29.7306 25.2311 29.736 24.8227 29.6864C23.2702 29.4977 21.8328 28.5276 21.0769 27.1585C20.3211 25.7894 20.266 24.0562 20.9335 22.6419C21.4817 21.4804 22.5006 20.4539 22.4895 19.1695C22.4835 18.4698 22.1625 17.8162 21.8487 17.1908C21.2063 15.9107 20.564 14.6306 19.9217 13.3505C19.5776 12.6648 19.1783 11.9259 18.4699 11.6313C17.9224 11.4036 17.3012 11.4919 16.7157 11.5851C16.1301 11.6782 15.5098 11.7688 14.9607 11.5451C14.4116 11.3214 13.9967 10.6568 14.2583 10.1247" fill="#2F2E41"/>
<path d="M15.2045 10.352C14.1496 10.0048 12.9664 10.5622 12.2523 11.4126C11.5382 12.2631 11.1918 13.3541 10.8618 14.4144C10.6727 15.0218 10.4837 15.6291 10.2947 16.2365C10.1169 16.8078 9.93907 17.3792 9.76126 17.9505C9.55211 18.6225 9.34125 19.3365 9.5129 20.0191C9.63699 20.5125 9.95629 20.9606 9.96317 21.4694C9.97034 22.0009 9.63751 22.4674 9.34583 22.9118C9.05416 23.3561 8.78036 23.884 8.91933 24.3971C9.1307 25.1774 10.2156 25.6063 10.1562 26.4126C10.1363 26.6817 9.9807 26.9306 9.98353 27.2004C9.98712 27.5436 10.2559 27.8403 10.5707 27.977C10.8856 28.1138 11.2398 28.1212 11.583 28.1152C12.6359 28.0967 13.6868 27.9716 14.7146 27.7426C15.11 27.6545 15.5121 27.5464 15.8413 27.3102C16.1704 27.074 16.416 26.6827 16.3731 26.2799C16.3064 25.6521 15.6314 25.296 15.2908 24.7644C14.9563 24.2423 14.964 23.5808 14.8197 22.9778C14.6215 22.1489 14.1318 21.4254 13.7642 20.6565C12.3822 17.766 12.866 14.0816 14.9473 11.6459C15.1314 11.4305 15.3324 11.2138 15.4092 10.9412C15.486 10.6685 15.387 10.3211 15.1203 10.2257" fill="#2F2E41"/>
<path d="M28.7111 4.92608C25.5345 1.74951 21.3109 0 16.8186 0C12.3263 0 8.10264 1.74951 4.92608 4.92608C1.74951 8.10264 0 12.3263 0 16.8186C0 20.9189 1.4574 24.7954 4.12814 27.8563C4.38295 28.149 4.64914 28.4342 4.92608 28.7111C4.9912 28.7762 5.05696 28.8414 5.12335 28.9046C5.30039 29.0759 5.48058 29.2435 5.66395 29.406C5.77523 29.5052 5.88777 29.6026 6.00158 29.6981C6.09073 29.7733 6.17988 29.8473 6.2703 29.92C6.2722 29.9219 6.27346 29.9232 6.27536 29.9244C9.25402 32.3303 12.9358 33.6372 16.8186 33.6372C21.0302 33.6372 25.0053 32.0995 28.1035 29.2896C28.3102 29.1025 28.5126 28.9096 28.7111 28.7111C28.7737 28.6485 28.8363 28.5853 28.8976 28.5214C29.0683 28.3456 29.234 28.1667 29.3959 27.9853C32.1381 24.9048 33.6372 20.9771 33.6372 16.8186C33.6372 12.3263 31.8877 8.10264 28.7111 4.92608L28.7111 4.92608ZM29.3548 27.8278C29.1967 28.0074 29.0348 28.1844 28.8692 28.357C28.6112 28.6257 28.345 28.8862 28.07 29.1373C27.9656 29.2334 27.8601 29.3269 27.7532 29.4199C26.6739 30.3588 25.4726 31.1605 24.177 31.7992C23.7224 32.0236 23.2564 32.2278 22.7797 32.4106C20.9278 33.1212 18.9178 33.5107 16.8186 33.5107C14.7928 33.5107 12.8504 33.1478 11.0528 32.4839C10.315 32.212 9.60177 31.8889 8.91702 31.5191C8.81648 31.4647 8.71658 31.4097 8.61731 31.3534C8.09506 31.0575 7.58986 30.7344 7.10491 30.3854C6.74261 30.1255 6.39107 29.8517 6.05153 29.5634C5.93267 29.4629 5.81506 29.3611 5.69935 29.2568C5.51093 29.0892 5.32631 28.9166 5.14611 28.7396C4.80468 28.4051 4.47843 28.0567 4.16671 27.6944C1.64961 24.7707 0.126456 20.9695 0.126456 16.8186C0.126456 7.61452 7.61452 0.126456 16.8186 0.126456C26.0227 0.126456 33.5107 7.61452 33.5107 16.8186C33.5107 21.0334 31.9408 24.8877 29.3548 27.8278V27.8278Z" fill="#3F3D56"/>
</svg>
