<svg width="24" height="24" viewBox="0 0 24 24" fill="none" xmlns="http://www.w3.org/2000/svg">
<path d="M1.11437 10.816C0.970481 10.8602 0.817262 10.8665 0.670143 10.834C0.523024 10.8016 0.3872 10.7316 0.276355 10.6312C0.16551 10.5307 0.0835583 10.4033 0.0387545 10.2619C-0.00604932 10.1204 -0.0121227 9.96978 0.0211467 9.82525C0.520324 7.78429 2.41843 2.79312 9.33329 0.693835C12.3286 -0.215501 15.201 -0.231024 17.8675 0.647353C20.061 1.36698 21.5172 2.4931 22.2138 3.0374C22.3908 3.175 22.5049 3.37607 22.531 3.59636C22.5572 3.81665 22.4932 4.03812 22.3532 4.21206C22.3514 4.21421 22.3497 4.21636 22.3479 4.21849C22.2042 4.39296 21.9964 4.50492 21.7694 4.53025C21.5424 4.55557 21.3144 4.49223 21.1345 4.35387C19.8724 3.37663 16.0427 0.407786 9.83568 2.29217C3.77494 4.13215 2.1286 8.43598 1.70158 10.1968C1.66916 10.3423 1.59754 10.4765 1.49423 10.5854C1.39093 10.6943 1.25973 10.774 1.11437 10.816Z" fill="#6A35FF"/>
<path d="M19.9614 22.376C19.8927 22.3978 19.8215 22.411 19.7495 22.4152C14.3473 22.7011 10.9103 18.2905 10.7692 18.1066L10.743 18.0641C10.6569 17.9328 8.57723 14.8232 9.49278 12.3535C9.91331 11.2244 10.8433 10.4319 12.2649 10.0004C13.5871 9.59897 14.6689 9.71768 15.5898 10.3639C16.3449 10.8905 16.8288 11.6757 17.2978 12.4339C18.2733 14.0083 18.8711 14.8093 20.7253 14.3471C21.5394 14.1441 21.9195 13.5185 22.0932 13.0312C22.5608 11.7052 22.1464 9.89754 21.05 8.52991C19.6336 6.75561 15.6697 3.80859 10.779 5.29336C8.69052 5.92741 6.98131 7.17688 5.83668 8.89735C4.88845 10.3252 4.3372 12.0985 4.32511 13.7523C4.30609 16.8315 6.8739 20.8825 6.89825 20.9192C6.95738 21.0122 6.9973 21.1157 7.01573 21.2238C7.03417 21.3319 7.03076 21.4425 7.0057 21.5493C6.98063 21.6561 6.93441 21.757 6.86967 21.8462C6.80492 21.9355 6.72293 22.0113 6.62836 22.0694C6.62573 22.0711 6.6231 22.0727 6.62046 22.0742C6.4267 22.193 6.19319 22.2321 5.97036 22.1831C5.74752 22.1341 5.55324 22.0009 5.42947 21.8123C5.31357 21.6271 2.57169 17.3077 2.59378 13.7489C2.62453 9.89142 5.0097 5.28771 10.2748 3.68927C12.7085 2.95043 15.266 3.07461 17.6728 4.04441C19.5382 4.80067 21.2647 6.05259 22.4061 7.48211C23.864 9.3068 24.3776 11.6953 23.7139 13.5595C23.2715 14.8022 22.3555 15.6597 21.1381 15.9663C17.9654 16.7595 16.7224 14.7625 15.816 13.3057C14.8851 11.8123 14.3703 11.112 12.7615 11.6005C11.8781 11.8686 11.3339 12.2984 11.105 12.9158C10.7935 13.7598 11.0887 14.8416 11.3912 15.6C11.3943 15.608 11.3975 15.6159 11.4006 15.6238C11.7884 16.5877 12.3935 17.4527 13.1706 18.1537C14.4152 19.2833 16.726 20.8938 19.671 20.7385C19.8962 20.7248 20.1177 20.7995 20.2868 20.9462C20.4558 21.093 20.5587 21.2997 20.5727 21.521C20.5729 21.5236 20.573 21.5263 20.5732 21.529C20.5801 21.7166 20.5239 21.9013 20.4133 22.0544C20.3028 22.2075 20.1439 22.3205 19.9614 22.376Z" fill="#6A35FF"/>
<path d="M13.4106 23.9617C13.298 23.9959 13.1795 24.0074 13.0623 23.9954C12.945 23.9833 12.8315 23.948 12.7285 23.8917C10.0641 22.408 8.1937 20.4126 6.8468 17.6158L6.84138 17.5985C5.99251 15.7338 5.48151 12.8848 6.6087 10.4768C7.44084 8.70006 9.00286 7.45119 11.2435 6.77096C13.8936 5.96641 16.3611 6.55877 18.3864 8.47575C19.3074 9.3605 20.0564 10.403 20.5965 11.5521C20.6826 11.7588 20.6825 11.9906 20.5961 12.1972C20.5097 12.4038 20.344 12.5687 20.1348 12.6562C19.9257 12.7437 19.6899 12.7468 19.4785 12.6647C19.2671 12.5827 19.097 12.4222 19.0051 12.2179C18.5477 11.2589 17.9162 10.3898 17.1416 9.65349C15.5806 8.1939 13.7659 7.76232 11.7418 8.37683C9.99261 8.90787 8.78813 9.84666 8.17155 11.1675C7.28237 13.0686 7.74017 15.4426 8.40446 16.9036C9.59209 19.3772 11.2394 21.1317 13.5845 22.4352C13.6813 22.4889 13.7665 22.5608 13.8351 22.6468C13.9037 22.7329 13.9543 22.8313 13.9842 22.9366C14.0141 23.0419 14.0226 23.1519 14.0092 23.2604C13.9958 23.3689 13.9607 23.4738 13.9061 23.569C13.9039 23.5728 13.9017 23.5765 13.8995 23.5802C13.7903 23.7626 13.6161 23.8985 13.4106 23.9617Z" fill="#6A35FF"/>
<path d="M13.6912 15.6008C14.2999 15.6008 14.7933 15.1158 14.7933 14.5176C14.7933 13.9194 14.2999 13.4345 13.6912 13.4345C13.0825 13.4345 12.5891 13.9194 12.5891 14.5176C12.5891 15.1158 13.0825 15.6008 13.6912 15.6008Z" fill="#E6E6E6"/>
</svg>
