<svg width="174" height="207" viewBox="0 0 174 207" fill="none" xmlns="http://www.w3.org/2000/svg">
<path d="M86.6288 206.193C134.473 206.193 173.258 183.41 173.258 155.305C173.258 127.2 134.473 104.417 86.6288 104.417C38.785 104.417 0 127.2 0 155.305C0 183.41 38.785 206.193 86.6288 206.193Z" fill="#FFD0C2"/>
<path d="M11.7867 176.605L61.9755 147.913L81.6327 141.579L89.5793 138.75L97.427 139.731L25.543 183.677C25.543 183.677 22.045 181.639 11.7867 176.605Z" fill="url(#paint0_linear_511_411)"/>
<path d="M36.577 196.848L96.8187 162.385L113.966 169.989L121.913 167.16L129.761 168.141L67.7548 205.007C67.7548 205.007 46.8429 201.859 36.577 196.848Z" fill="url(#paint1_linear_511_411)"/>
<path d="M95.6552 12.8678L100.727 15.1111L95.8529 17.2555L94.6818 14.7308" fill="#FF784B"/>
<path d="M49.4435 161.868L91.5792 137.313C93.2698 136.327 94.6735 134.917 95.6512 133.222C96.6289 131.526 97.1467 129.605 97.1532 127.648L98.5144 16.1149C98.5144 13.1872 93.9518 11.6967 91.4499 13.1872L47.8618 38.9051C46.7802 39.5437 45.8837 40.4534 45.261 41.5442C44.6382 42.635 44.3106 43.8694 44.3105 45.1255V158.925C44.3118 159.524 44.4712 160.113 44.7724 160.632C45.0737 161.151 45.5063 161.581 46.0266 161.879C46.547 162.178 47.1368 162.334 47.7366 162.332C48.3365 162.329 48.9252 162.169 49.4435 161.868Z" fill="#FF784B"/>
<path d="M46.0672 161.906L51.5803 164.818L50.9416 160.978L47.1166 160.286" fill="#FF784B"/>
<path d="M54.7285 164.666L96.8643 140.111C98.5618 139.123 99.9706 137.707 100.95 136.005C101.929 134.302 102.445 132.372 102.446 130.408V17.8106C102.447 17.2838 102.309 16.7661 102.045 16.3103C101.781 15.8544 101.4 15.4766 100.943 15.2154C100.485 14.9542 99.9669 14.8189 99.4402 14.8233C98.9134 14.8277 98.3972 14.9716 97.9441 15.2404L53.1316 41.7187C52.05 42.3573 51.1536 43.267 50.5308 44.3578C49.908 45.4486 49.5805 46.683 49.5804 47.9391V161.715C49.5788 162.318 49.7368 162.911 50.0383 163.432C50.3398 163.954 50.774 164.387 51.297 164.687C51.8199 164.987 52.4129 165.143 53.0156 165.139C53.6183 165.135 54.2093 164.972 54.7285 164.666Z" fill="#F4F4F4"/>
<path d="M52.2648 54.7906L100.271 27.2628V125.762L52.2648 153.518V54.7906Z" fill="#6A35FF"/>
<path d="M82.9049 144.258C83.2883 142.652 82.6354 141.121 81.4467 140.837C80.258 140.553 78.9836 141.624 78.6002 143.23C78.2169 144.835 78.8698 146.367 80.0585 146.65C81.2472 146.934 82.5216 145.863 82.9049 144.258Z" fill="#BABABC"/>
<path d="M82.5377 32.0003C82.5371 32.1887 82.4869 32.3737 82.3922 32.5366C82.2974 32.6995 82.1613 32.8345 81.9978 32.928L72.7204 38.2511C72.5576 38.3442 72.3732 38.393 72.1856 38.3925C71.998 38.3921 71.8138 38.3425 71.6514 38.2486C71.489 38.1547 71.3541 38.0198 71.2601 37.8575C71.1662 37.6951 71.1164 37.5109 71.1159 37.3234V37.0952C71.1166 36.904 71.1685 36.7164 71.2661 36.5519C71.3637 36.3875 71.5035 36.2521 71.671 36.1599L80.9483 31.0726C81.1108 30.9832 81.2936 30.9374 81.4789 30.9397C81.6643 30.942 81.8459 30.9924 82.006 31.0858C82.1661 31.1793 82.2993 31.3127 82.3925 31.4729C82.4856 31.6332 82.5357 31.8149 82.5377 32.0003Z" fill="#CCCCCC"/>
<path d="M87.7864 29.5338C88.0604 28.7934 87.842 28.03 87.2984 27.8288C86.7549 27.6277 86.0921 28.0649 85.8181 28.8053C85.544 29.5458 85.7625 30.3091 86.306 30.5103C86.8495 30.7115 87.5123 30.2743 87.7864 29.5338Z" fill="#CCCCCC"/>
<path d="M86.7429 51.1786V57.4065C86.7435 57.6302 86.8021 57.8499 86.913 58.0441C87.024 58.2383 87.1834 58.4005 87.3757 58.5146C87.5681 58.6288 87.7867 58.6911 88.0104 58.6955C88.234 58.6999 88.4549 58.6461 88.6516 58.5396L94.4081 55.4066C94.6108 55.2949 94.7799 55.1309 94.8976 54.9316C95.0153 54.7323 95.0774 54.505 95.0773 54.2735V47.8707C95.0762 47.645 95.0161 47.4235 94.9029 47.2283C94.7897 47.0331 94.6274 46.8709 94.4321 46.7578C94.2368 46.6448 94.0152 46.5849 93.7896 46.584C93.5639 46.5831 93.3419 46.6413 93.1457 46.7528L87.3512 50.0835C87.1653 50.1995 87.012 50.3609 86.9056 50.5524C86.7991 50.744 86.7432 50.9594 86.7429 51.1786Z" fill="#FF784B"/>
<path d="M57.7855 67.756V73.9839C57.7861 74.2076 57.8447 74.4273 57.9556 74.6215C58.0665 74.8157 58.226 74.9779 58.4183 75.092C58.6106 75.2062 58.8293 75.2685 59.0529 75.2729C59.2766 75.2773 59.4975 75.2235 59.6942 75.117L65.4507 71.9536C65.6534 71.8419 65.8225 71.6779 65.9402 71.4786C66.0579 71.2792 66.12 71.052 66.1198 70.8205V64.4481C66.1188 64.2224 66.0587 64.0009 65.9455 63.8057C65.8323 63.6105 65.67 63.4483 65.4746 63.3353C65.2793 63.2222 65.0578 63.1623 64.8322 63.1614C64.6065 63.1605 64.3845 63.2187 64.1883 63.3302L58.4546 66.6381C58.2541 66.7485 58.0865 66.9102 57.9689 67.1066C57.8514 67.303 57.788 67.5271 57.7855 67.756Z" fill="#7EB753"/>
<path d="M72.5988 59.7411V65.969C72.5994 66.1927 72.658 66.4124 72.7689 66.6066C72.8799 66.8008 73.0393 66.963 73.2316 67.0771C73.4239 67.1913 73.6426 67.2536 73.8662 67.258C74.0899 67.2624 74.3108 67.2086 74.5075 67.1021L80.2639 63.9387C80.4667 63.827 80.6358 63.663 80.7535 63.4637C80.8712 63.2643 80.9333 63.0371 80.9331 62.8056V56.4332C80.9336 56.2053 80.8738 55.9813 80.7599 55.7839C80.6459 55.5866 80.4818 55.4229 80.2841 55.3094C80.0865 55.1959 79.8624 55.1367 79.6345 55.1377C79.4066 55.1388 79.183 55.2 78.9864 55.3153L73.2299 58.6232C73.0365 58.7385 72.8765 58.9022 72.7658 59.0983C72.6551 59.2943 72.5975 59.5159 72.5988 59.7411Z" fill="#F2F2F2"/>
<path d="M68.4971 133.927C69.5401 130.645 68.4064 127.355 65.9649 126.579C63.5234 125.803 60.6986 127.835 59.6556 131.117C58.6125 134.399 59.7462 137.689 62.1878 138.465C64.6293 139.241 67.4541 137.209 68.4971 133.927Z" fill="#F2F2F2"/>
<path d="M65.9805 131.345C66.2661 130.032 65.7658 128.808 64.8629 128.612C63.9601 128.415 62.9966 129.321 62.711 130.634C62.4254 131.947 62.9258 133.171 63.8286 133.367C64.7315 133.564 65.6949 132.658 65.9805 131.345Z" fill="#C4B7B3"/>
<path d="M61.063 137.868C61.063 137.868 62.0668 133.473 64.599 132.941C67.1313 132.408 67.7548 135.617 67.7548 135.617C67.418 136.293 66.9479 136.893 66.3729 137.382C65.7978 137.87 65.1297 138.238 64.4089 138.461C61.8766 139.313 61.063 137.868 61.063 137.868Z" fill="#C4B7B3"/>
<path d="M83.7219 125.413C84.8514 121.859 83.6223 118.296 80.9767 117.455C78.331 116.614 75.2706 118.814 74.1411 122.368C73.0116 125.922 74.2407 129.485 76.8863 130.326C79.532 131.167 82.5924 128.967 83.7219 125.413Z" fill="#FF784B"/>
<path d="M76.8268 120.804C76.9864 120.758 78.4009 121.648 78.3476 121.945C78.2944 122.241 77.5872 123.245 77.6936 123.428C77.8001 123.61 79.2145 125.405 80.0206 125.519C80.5619 125.181 81.071 124.794 81.5415 124.363C81.8026 124.463 82.034 124.628 82.2136 124.842C82.3933 125.056 82.5153 125.313 82.568 125.587C82.568 125.914 81.2525 127.017 80.4388 127.298C79.3818 127.663 76.1271 124.051 75.7393 123.108C75.3515 122.165 76.8268 120.804 76.8268 120.804Z" fill="#FF784B"/>
<path d="M88.3778 74.5239V80.7519C88.3784 80.9756 88.437 81.1952 88.548 81.3895C88.6589 81.5837 88.8183 81.7458 89.0106 81.86C89.203 81.9742 89.4217 82.0365 89.6453 82.0409C89.8689 82.0452 90.0898 81.9915 90.2865 81.8849L96.043 78.7215C96.2457 78.6099 96.4148 78.4458 96.5325 78.2465C96.6503 78.0472 96.7123 77.82 96.7122 77.5885V71.216C96.7111 70.9904 96.651 70.7689 96.5378 70.5737C96.4246 70.3784 96.2623 70.2162 96.067 70.1032C95.8717 69.9902 95.6502 69.9302 95.4245 69.9294C95.1988 69.9285 94.9769 69.9867 94.7807 70.0982L89.0242 73.4061C88.8279 73.5194 88.6649 73.6823 88.5514 73.8785C88.438 74.0747 88.3781 74.2973 88.3778 74.5239Z" fill="#7EB753"/>
<path d="M59.9147 90.8504V97.0784C59.9153 97.302 59.9739 97.5217 60.0849 97.716C60.1958 97.9102 60.3552 98.0723 60.5476 98.1865C60.7399 98.3007 60.9586 98.363 61.1822 98.3674C61.4058 98.3717 61.6267 98.318 61.8234 98.2114L67.5799 95.048C67.7827 94.9364 67.9517 94.7723 68.0694 94.573C68.1872 94.3737 68.2492 94.1464 68.2491 93.915V87.5425C68.248 87.3168 68.1879 87.0954 68.0747 86.9002C67.9615 86.7049 67.7992 86.5427 67.6039 86.4297C67.4086 86.3166 67.1871 86.2567 66.9614 86.2558C66.7357 86.255 66.5138 86.3132 66.3176 86.4247L60.5611 89.7326C60.3648 89.8459 60.2018 90.0088 60.0883 90.205C59.9749 90.4012 59.915 90.6238 59.9147 90.8504Z" fill="#FF784B"/>
<path d="M74.9409 82.4552V88.6832C74.9415 88.9069 75.0002 89.1265 75.1111 89.3208C75.222 89.515 75.3814 89.6771 75.5738 89.7913C75.7661 89.9055 75.9848 89.9678 76.2084 89.9722C76.432 89.9765 76.653 89.9228 76.8496 89.8162L82.6061 86.6528C82.8089 86.5412 82.978 86.3771 83.0957 86.1778C83.2134 85.9785 83.2754 85.7512 83.2753 85.5198V79.1473C83.2742 78.9217 83.2141 78.7002 83.1009 78.505C82.9877 78.3097 82.8254 78.1475 82.6301 78.0345C82.4348 77.9215 82.2133 77.8615 81.9876 77.8606C81.762 77.8598 81.54 77.918 81.3438 78.0295L75.5873 81.3374C75.391 81.4507 75.228 81.6136 75.1145 81.8098C75.0011 82.006 74.9412 82.2286 74.9409 82.4552Z" fill="#7EB753"/>
<path d="M88.8721 115.108V121.336C88.8727 121.56 88.9313 121.78 89.0423 121.974C89.1532 122.168 89.3126 122.33 89.5049 122.444C89.6973 122.559 89.916 122.621 90.1396 122.625C90.3632 122.63 90.5841 122.576 90.7808 122.469L96.4765 119.283C96.6792 119.171 96.8483 119.007 96.966 118.808C97.0837 118.609 97.1458 118.381 97.1456 118.15V111.778C97.1446 111.552 97.0845 111.33 96.9713 111.135C96.8581 110.94 96.6958 110.778 96.5005 110.665C96.3051 110.552 96.0836 110.492 95.858 110.491C95.6323 110.49 95.4103 110.548 95.2141 110.66L89.4881 113.96C89.2929 114.08 89.133 114.249 89.0248 114.451C88.9166 114.653 88.8639 114.879 88.8721 115.108Z" fill="#FFAC99"/>
<path d="M95.0648 117.653C95.604 116.399 95.303 115.065 94.3925 114.673C93.482 114.282 92.3067 114.981 91.7675 116.235C91.2283 117.488 91.5293 118.822 92.4398 119.214C93.3503 119.605 94.5256 118.906 95.0648 117.653Z" fill="#FF784B"/>
<path d="M138.103 22.2211C138.617 21.9572 139.049 21.5576 139.352 21.0656C139.655 20.5737 139.817 20.0081 139.821 19.4303V3.1646C139.82 2.60815 139.673 2.06178 139.393 1.58039C139.114 1.09901 138.713 0.699545 138.231 0.422137C137.749 0.144729 137.202 -0.000856473 136.645 3.79043e-06C136.089 0.000864054 135.542 0.14814 135.061 0.427038L109.586 15.2859C109.096 15.5714 108.692 15.9829 108.415 16.4778C108.138 16.9726 107.999 17.5327 108.012 18.0996L108.872 38.6769L138.103 22.2211Z" fill="#6A35FF"/>
<path d="M108.872 38.6769L108.872 43.1559L114.94 33.4299" fill="#6A35FF"/>
<path d="M113.206 21.301L135.525 8.50287C135.743 8.37581 135.901 8.16743 135.965 7.92357C136.029 7.67971 135.994 7.42034 135.867 7.20253C135.804 7.09468 135.721 7.00027 135.621 6.92471C135.522 6.84914 135.408 6.7939 135.288 6.76212C135.044 6.69795 134.785 6.73327 134.567 6.86033L112.24 19.6661C112.036 19.8003 111.892 20.0078 111.837 20.2456C111.782 20.4835 111.82 20.7334 111.944 20.9436C112.068 21.1538 112.269 21.3082 112.504 21.3747C112.739 21.4413 112.99 21.4149 113.206 21.301Z" fill="#FF784B"/>
<path d="M114.316 27.8028L136.635 15.0046C136.853 14.8776 137.011 14.6692 137.075 14.4253C137.14 14.1815 137.104 13.9221 136.977 13.7043C136.85 13.4865 136.642 13.3281 136.398 13.2639C136.154 13.1997 135.895 13.235 135.677 13.3621L113.351 26.1602C113.133 26.2873 112.974 26.4957 112.91 26.7395C112.846 26.9834 112.881 27.2428 113.008 27.4606C113.135 27.6784 113.344 27.8368 113.588 27.901C113.831 27.9652 114.091 27.9298 114.309 27.8028H114.316Z" fill="#FF784B"/>
<path d="M126.643 71.6418C126.643 71.6418 133.875 80.0066 134.133 86.0445C134.392 92.0823 125.837 102.683 125.837 102.683L120.308 93.9606C120.308 93.9606 127.502 86.5235 120.308 80.7975C120.308 80.7975 117.845 71.1399 126.643 71.6722" fill="#CE5438"/>
<path d="M123.898 153.647C123.898 153.647 126.62 157.449 126.392 159.624C126.164 161.799 122.704 165.548 121.913 167.122C121.122 168.696 120.917 169.403 121.913 170.536C122.909 171.67 131.388 164.293 131.586 163.107C131.783 161.921 130.399 157.389 130.399 157.389L134.164 162.149L136.909 160.529L131.091 150.735" fill="#FF784B"/>
<path d="M122.818 170.666C123.046 170.438 129.761 168.111 129.761 168.111C129.761 168.111 132.917 164.826 132.802 163.548C132.688 162.271 131.555 157.32 130.377 157.373C129.198 157.427 129.069 164.004 129.069 164.004L122.818 170.666Z" fill="#15156D"/>
<path d="M114.826 159.906L113.966 169.959C113.966 169.959 111.792 171.548 111.259 171.411C110.727 171.274 109.13 170.856 109.115 170.605C109.1 170.354 109.875 163.502 109.662 163.32C109.449 163.137 106.111 168.552 105.1 168.643C104.088 168.734 96.0886 164.118 96.8491 162.362C97.6095 160.605 101.465 161.525 103.366 161.51C105.267 161.495 107.929 160.407 109.313 157.145" fill="#FF784B"/>
<path d="M109.784 132.674L104.917 158.438C104.917 158.438 107.723 162.111 117.776 161.647L125.251 143.396" fill="#3129A3"/>
<path d="M107.632 92.2421C107.632 92.2421 100.134 103.185 102.438 120.903C104.484 136.606 120.164 155.122 120.164 155.122C120.164 155.122 124.856 157.191 134.612 147.952L123.852 130.811C123.852 130.811 134.354 106.477 121.959 91.033" fill="#3129A3"/>
<path d="M79.3438 79.2386C75.5417 78.9116 72.9258 73.7558 73.4505 67.5051C73.9752 61.2543 77.3971 56.6004 81.2677 56.9274C85.1384 57.2544 87.6858 62.4101 87.1611 68.6609C86.6364 74.9117 83.1764 79.5656 79.3438 79.2386ZM81.0548 59.0034C78.4769 58.7829 75.9447 62.7599 75.5341 67.68C75.1234 72.6 76.9409 76.9421 79.5264 77.1626C82.1118 77.3831 84.6365 73.406 85.0471 68.486C85.4577 63.566 83.6327 59.2087 81.0548 59.0034Z" fill="#F2F2F2"/>
<path d="M86.4919 71.2464C86.4919 69.8396 84.3323 69.8396 84.3019 71.2464C84.3019 72.0068 84.3019 72.7216 84.3019 73.4592C84.2182 73.2996 84.1346 73.1399 84.0585 72.9802C83.2029 70.9438 82.5631 68.8232 82.1499 66.6534C81.8761 65.2465 79.8685 65.8929 80.0434 67.2313C80.1892 68.2956 80.4129 69.3479 80.7126 70.3795L80.4997 70.2882C80.3126 70.2269 80.1149 70.2047 79.9189 70.223C79.7228 70.2413 79.5326 70.2997 79.3601 70.3945C79.1875 70.4893 79.0363 70.6186 78.9158 70.7743C78.7953 70.93 78.708 71.1088 78.6595 71.2996C78.5526 71.6339 78.5343 71.9903 78.6062 72.3338H78.4389C78.203 72.414 77.9893 72.5489 77.8153 72.7274C77.6413 72.9059 77.512 73.1229 77.4379 73.3609C77.3638 73.5989 77.3469 73.851 77.3887 74.0967C77.4305 74.3424 77.5298 74.5748 77.6785 74.7748C77.4067 74.9895 77.2206 75.2943 77.1538 75.6341C77.1088 76.0225 77.1724 76.4157 77.3375 76.7702C77.5026 77.1246 77.7628 77.4262 78.0891 77.6416C78.8496 78.2652 79.6632 79.0789 80.3704 79.7556C81.2754 80.6378 82.2943 81.5047 83.146 82.2119C83.9977 82.9191 85.3817 80.5921 85.4273 79.8089C85.5829 79.8587 85.7483 79.8698 85.9092 79.8412C86.0701 79.8126 86.2215 79.7452 86.3504 79.6448C86.4793 79.5444 86.5817 79.414 86.6488 79.265C86.7158 79.1161 86.7455 78.953 86.7353 78.7899C86.5173 76.2855 86.4362 73.771 86.4919 71.2464Z" fill="#FFAC99"/>
<path d="M82.1194 73.5809C81.6125 72.5062 81.1359 71.4112 80.6898 70.2959C80.5986 70.0601 80.2107 70.1666 80.3096 70.4023C80.7557 71.548 81.2449 72.6735 81.7772 73.7786C81.8837 74.0144 82.2259 73.8091 82.1194 73.5809Z" fill="#AF594A"/>
<path d="M108.773 68.0829C108.773 68.0829 105.115 71.3756 103.701 73.6569C102.286 75.9382 96.6133 82.2042 94.2788 80.3183C91.9443 78.4325 87.8075 74.8356 87.8075 74.8356C87.8075 74.8356 81.8989 78.8963 82.4844 83.1243C82.4844 83.1243 87.7314 93.8465 95.9061 91.4891C104.081 89.1318 106.119 86.0368 106.119 86.0368L107.351 93.01C107.351 93.01 117.495 96.1886 122.202 91.4891C122.202 91.4891 125.289 71.4669 123.016 68.4784" fill="#FF784B"/>
<path d="M107.64 55.954C107.564 56.1822 107.389 63.4519 109.86 64.1439C112.332 64.8359 116.529 63.1097 117.617 60.8056C118.704 58.5015 117.153 51.1709 113.252 50.7451C109.351 50.3192 108.339 53.8324 107.64 55.954Z" fill="#FFAC99"/>
<path d="M126.772 67.4138C126.073 65.8169 124.924 64.9576 125.198 63.0641C125.411 61.6117 125.776 60.1821 125.267 58.7372C124.757 57.2924 123.487 56.5624 122.286 55.6955C121.938 55.4398 121.612 55.1548 121.312 54.8438L121.054 54.4104C120.339 53.1937 119.822 51.726 118.864 50.6766C117.908 49.7223 116.676 49.092 115.343 48.8744C113.95 48.6216 112.52 48.6537 111.14 48.9686C109.76 49.2836 108.458 49.875 107.313 50.707C107.313 50.707 105.191 52.745 105.86 54.9275C106.529 57.1099 109.176 56.3115 110.643 57.3C112.271 58.4026 111.237 60.4938 110.552 61.8626C110.029 62.888 109.767 64.0271 109.792 65.1781C109.813 66.251 109.436 67.2937 108.735 68.1058C107.974 69.1704 107.092 70.2807 107.031 71.6494C106.91 74.3414 109.761 80.0142 117.921 77.9078C118.445 77.7709 118.993 77.6112 119.54 77.4287C121.282 76.9495 122.916 76.1416 124.354 75.0486C126.643 73.2616 127.974 70.159 126.772 67.4138Z" fill="#3129A3"/>
<path d="M108.78 137.982C108.78 137.982 117.366 152.841 120.187 155.107L117.791 161.647C117.791 161.647 107.807 147.655 108.78 137.982Z" fill="#15156D"/>
<path d="M123.67 130.028C120.928 124.24 119.404 117.951 119.191 111.55C119.191 111.04 118.377 111.04 118.43 111.55C118.644 118.087 120.197 124.511 122.993 130.424C123.206 130.887 123.852 130.484 123.67 130.028Z" fill="#15156D"/>
<defs>
<linearGradient id="paint0_linear_511_411" x1="96.3363" y1="79.9575" x2="15.5474" y2="100.902" gradientUnits="userSpaceOnUse">
<stop stop-color="#FFAC8A"/>
<stop offset="0.99" stop-color="#FFD0C2"/>
</linearGradient>
<linearGradient id="paint1_linear_511_411" x1="163.572" y1="-2.61191" x2="-7.48314" y2="31.3527" gradientUnits="userSpaceOnUse">
<stop stop-color="#FFAC8A"/>
<stop offset="0.99" stop-color="#FFD0C2"/>
</linearGradient>
</defs>
</svg>
