<svg width="120" height="120" viewBox="0 0 120 120" fill="none" xmlns="http://www.w3.org/2000/svg">
<path d="M0 35.712C0 15.9888 15.9888 0 35.712 0H84.288C104.011 0 120 15.9888 120 35.712V84.288C120 104.011 104.011 120 84.288 120H35.712C15.9888 120 0 104.011 0 84.288V35.712Z" fill="white"/>
<path d="M65.882 27.664C66.1203 27.6163 66.597 27.5925 67.312 27.5925C68.4083 27.6402 69.4093 27.9023 70.315 28.379C72.174 29.3323 73.1035 30.8577 73.1035 32.955C73.1035 33.813 72.9128 34.6233 72.5315 35.386C72.3408 35.8627 72.0548 36.2678 71.6735 36.6015C71.1968 37.0782 70.7917 37.388 70.458 37.531C69.1233 38.1507 67.8602 38.1745 66.6685 37.6025C65.4768 36.9828 65.0478 35.8865 65.3815 34.3135C65.4292 34.1228 65.4768 33.9322 65.5245 33.7415C65.8582 32.6452 66.454 31.8348 67.312 31.3105C67.5503 31.1675 67.3835 31.0483 66.8115 30.953C66.4778 30.953 66.2395 31.0007 66.0965 31.096C65.7152 31.382 65.453 31.7157 65.31 32.097C65.1193 32.4783 64.6188 34.671 63.8085 38.675C62.7122 43.9183 62.164 46.7307 62.164 47.112C62.164 47.1597 63.451 47.1835 66.025 47.1835H69.886L70.172 47.398C70.3627 47.6363 70.3388 48.2798 70.1005 49.3285C69.8622 50.3772 69.6477 50.9492 69.457 51.0445C69.314 51.1398 67.9317 51.1875 65.31 51.1875C62.6883 51.1875 61.3775 51.2352 61.3775 51.3305L59.5185 60.7685L57.3735 71.851C56.0865 78.0477 54.8472 82.4807 53.6555 85.15C52.1302 88.6773 50.1758 90.9892 47.7925 92.0855C47.1252 92.4192 46.4102 92.6098 45.6475 92.6575C43.5502 92.7528 41.8818 92.1093 40.6425 90.727C40.5472 90.6793 40.4757 90.6078 40.428 90.5125C39.7607 89.5592 39.427 88.5105 39.427 87.3665C39.427 86.4608 39.6177 85.6267 39.999 84.864C40.1897 84.3873 40.4757 83.9822 40.857 83.6485C41.3337 83.1718 41.7388 82.862 42.0725 82.719C43.4072 82.0993 44.6703 82.0755 45.862 82.6475C47.0537 83.2672 47.4827 84.3635 47.149 85.9365C47.1013 86.1272 47.0537 86.3178 47.006 86.5085C46.6723 87.6048 46.0765 88.4152 45.2185 88.9395C44.9325 89.1302 45.0993 89.2255 45.719 89.2255C46.1003 89.2255 46.3863 89.154 46.577 89.011C47.1967 88.5343 47.6733 87.295 48.007 85.293C48.4837 82.29 49.1987 78.9057 50.152 75.14L51.582 68.705C53.8223 56.7407 54.9425 50.9253 54.9425 51.259C54.9425 51.2113 53.8462 51.1875 51.6535 51.1875C49.3178 51.1875 48.0547 51.0207 47.864 50.687C47.7687 50.544 47.8402 49.9958 48.0785 49.0425C48.3168 48.0892 48.5075 47.541 48.6505 47.398L48.865 47.1835H55.729V47.0405L56.444 43.537C57.3973 38.5797 58.3268 35.1238 59.2325 33.1695C60.7102 30.1665 62.9267 28.3313 65.882 27.664Z" fill="black"/>
</svg>
