<svg width="34" height="34" viewBox="0 0 34 34" fill="none" xmlns="http://www.w3.org/2000/svg">
<circle cx="16.82" cy="16.82" r="16.82" fill="white"/>
<path d="M17.1196 21.9578C20.1349 21.9578 22.5792 19.5135 22.5792 16.4982C22.5792 13.4829 20.1349 11.0385 17.1196 11.0385C14.1043 11.0385 11.6599 13.4829 11.6599 16.4982C11.6599 19.5135 14.1043 21.9578 17.1196 21.9578Z" fill="#FFB6B6"/>
<path d="M13.9853 22.7652L13.7386 20.2719L18.6641 19.3509L21.5726 26.4324L16.5144 32.2494L12.9104 25.1678L13.9853 22.7652Z" fill="#FFB6B6"/>
<path d="M27.8875 29.5169C24.733 32.2633 20.7275 33.7201 16.5168 33.6347C12.6347 33.556 8.98024 32.1747 6.05097 29.709C6.0491 29.7077 6.04786 29.7064 6.046 29.7044C5.84391 29.5347 5.6451 29.3592 5.45019 29.1782C5.4626 29.1279 5.47562 29.0782 5.48862 29.0297C6.01966 27.0117 6.6271 26.5586 6.6271 26.5586L9.64588 24.8915L13.9652 22.8352L14.0916 22.8378C14.0916 22.8378 13.7523 23.758 14.72 24.7503C15.1661 25.2077 15.8618 25.6114 16.941 25.8141C18.3484 26.0779 19.0933 25.5536 19.4827 24.8443C19.9397 24.0131 20.1569 23.1233 20.1308 22.7598C20.1248 22.68 20.1194 22.635 20.1194 22.635C20.1194 22.635 20.3861 22.7991 21.1832 23.3199C21.8834 23.7774 22.8007 24.3589 23.7762 24.9314C23.9062 25.008 24.0368 25.084 24.1688 25.1594C24.807 25.5259 25.4613 25.8813 26.0881 26.19C27.0161 26.6464 27.5536 27.893 27.8571 29.3639C27.8674 29.4147 27.8778 29.4655 27.8875 29.5169V29.5169Z" fill="#FF8744"/>
<path d="M28.7111 4.92608C25.5345 1.74951 21.3109 0 16.8186 0C12.3263 0 8.10264 1.74951 4.92608 4.92608C1.74951 8.10264 0 12.3263 0 16.8186C0 20.9189 1.4574 24.7954 4.12814 27.8563C4.38295 28.149 4.64914 28.4342 4.92608 28.7111C4.9912 28.7762 5.05696 28.8414 5.12335 28.9046C5.30039 29.0759 5.48058 29.2435 5.66395 29.406C5.77523 29.5052 5.88777 29.6026 6.00158 29.6981C6.09073 29.7733 6.17988 29.8473 6.2703 29.92C6.2722 29.9219 6.27346 29.9232 6.27536 29.9244C9.25402 32.3303 12.9358 33.6372 16.8186 33.6372C21.0302 33.6372 25.0053 32.0995 28.1035 29.2896C28.3102 29.1025 28.5126 28.9096 28.7111 28.7111C28.7737 28.6485 28.8363 28.5853 28.8976 28.5214C29.0683 28.3456 29.234 28.1667 29.3959 27.9853C32.1381 24.9048 33.6372 20.9771 33.6372 16.8186C33.6372 12.3263 31.8877 8.10264 28.7111 4.92608L28.7111 4.92608ZM29.3548 27.8278C29.1967 28.0074 29.0348 28.1844 28.8692 28.357C28.6112 28.6257 28.345 28.8862 28.07 29.1373C27.9656 29.2334 27.8601 29.3269 27.7532 29.4199C26.6739 30.3588 25.4726 31.1605 24.177 31.7992C23.7224 32.0236 23.2564 32.2278 22.7797 32.4106C20.9278 33.1212 18.9178 33.5107 16.8186 33.5107C14.7928 33.5107 12.8504 33.1478 11.0528 32.4839C10.315 32.212 9.60177 31.8889 8.91702 31.5191C8.81648 31.4647 8.71658 31.4097 8.61731 31.3534C8.09506 31.0575 7.58986 30.7344 7.10491 30.3854C6.74261 30.1255 6.39107 29.8517 6.05153 29.5634C5.93267 29.4629 5.81506 29.3611 5.69935 29.2568C5.51093 29.0892 5.32631 28.9166 5.14611 28.7396C4.80468 28.4051 4.47843 28.0567 4.16671 27.6944C1.64961 24.7707 0.126456 20.9695 0.126456 16.8186C0.126456 7.61452 7.61452 0.126456 16.8186 0.126456C26.0227 0.126456 33.5107 7.61452 33.5107 16.8186C33.5107 21.0334 31.9408 24.8877 29.3548 27.8278V27.8278Z" fill="#3F3D56"/>
<path d="M13.6595 21.5199L14.7363 21.7632C14.7363 21.7632 13.8898 19.0789 14.1771 18.8226C14.4645 18.5664 15.1685 18.9702 15.1685 18.9702L15.9084 19.7997L16.8097 18.8821C16.8097 18.8821 17.7881 17.6655 18.1712 17.3238C18.5543 16.9821 17.939 15.7138 17.939 15.7138C17.939 15.7138 23.6226 14.1812 21.5077 11.4244C21.5077 11.4244 20.2678 9.26301 19.864 9.9671C19.4602 10.6712 18.9787 9.55295 18.9787 9.55295L17.5084 9.83255C17.5084 9.83255 14.6066 8.12157 11.8525 11.7818C9.09834 15.4421 13.6595 21.5199 13.6595 21.5199V21.5199Z" fill="#2F2E41"/>
</svg>
