<svg width="192" height="191" viewBox="0 0 192 191" fill="none" xmlns="http://www.w3.org/2000/svg">
<path d="M89.0712 189.999L1.18834 125.418L103.117 80.88L191 145.461L89.0712 189.999Z" fill="#0D0D0D" stroke="#0D0D0D" stroke-width="0.2" stroke-linecap="round" stroke-linejoin="round"/>
<path d="M190.81 145.461L102.928 80.8806V42.5017L190.81 107.082V145.461Z" fill="#FFCB45" stroke="#0D0D0D" stroke-width="0.2" stroke-linecap="round" stroke-linejoin="round"/>
<path d="M190.816 107.035V145.462L88.887 190V151.621L190.816 107.035Z" fill="#FFF066" stroke="#0D0D0D" stroke-width="0.2" stroke-linecap="round" stroke-linejoin="round"/>
<path d="M102.929 42.4546V80.8808L1 125.419V86.993L102.929 42.4546Z" fill="#FFF066" stroke="#0D0D0D" stroke-width="0.2" stroke-linecap="round" stroke-linejoin="round"/>
<path d="M89.0712 189.999L1.18834 125.418V87.9398L89.0712 151.62V189.999Z" fill="#FFCB45" stroke="#0D0D0D" stroke-width="0.2" stroke-linecap="round" stroke-linejoin="round"/>
<path d="M190.813 87.0874L186.068 99.833L84.139 144.371L88.8843 131.626L190.813 87.0874Z" fill="#FFF066" stroke="#0D0D0D" stroke-width="0.2" stroke-linecap="round" stroke-linejoin="round"/>
<path d="M88.8828 131.625L84.1375 144.37L1 57.7575L5.74529 45.0119L88.8828 131.625Z" fill="#FFCB45" stroke="#0D0D0D" stroke-width="0.2" stroke-linecap="round" stroke-linejoin="round"/>
<path d="M5.74301 45.0129L88.8805 131.626L190.809 87.0875L107.672 0.474548L5.74301 45.0129Z" fill="#FFF066" stroke="#0D0D0D" stroke-width="0.2" stroke-linecap="round" stroke-linejoin="round"/>
<path d="M49.7782 25.7762L132.916 112.389L146.772 106.324L63.6344 19.7114L49.7782 25.7762Z" fill="#3F6FD9" stroke="#020203" stroke-width="0.2" stroke-linecap="round" stroke-linejoin="round"/>
<path d="M42.0962 82.8708L52.5833 93.8159L154.512 49.2301L143.978 38.3324L42.0962 82.8708Z" fill="#3F6FD9" stroke="#020203" stroke-width="0.2" stroke-linecap="round" stroke-linejoin="round"/>
<path d="M112.796 58.0898C109.289 54.4468 104.746 51.9663 99.782 50.9834C94.8176 50.0005 89.6706 50.5625 85.0364 52.5936C83.2971 53.3557 81.7671 54.5253 80.5767 56.0032C79.3863 57.481 78.5707 59.2236 78.1982 61.0833C77.8257 62.943 77.9073 64.865 78.4369 66.6864C78.9664 68.5077 79.928 70.1747 81.2399 71.5461C84.7292 75.1996 89.2529 77.7018 94.2055 78.7179C99.158 79.734 104.303 79.2156 108.952 77.2319C110.714 76.4673 112.264 75.2887 113.47 73.7967C114.677 72.3047 115.504 70.5435 115.882 68.6633C116.259 66.783 116.176 64.8395 115.639 62.9984C115.101 61.1573 114.126 59.4733 112.796 58.0898Z" fill="#3F6FD9" stroke="#020203" stroke-width="0.2" stroke-linecap="round" stroke-linejoin="round"/>
<path d="M40.1493 45.7704C54.7173 47.7604 67.3872 42.4537 68.621 33.9725C68.684 31.3014 67.9924 28.6666 66.6243 26.3703C65.2562 24.0741 63.2677 22.2094 60.8867 20.9901L21.5481 38.1893C26.9199 42.3979 33.3624 45.0236 40.1493 45.7704Z" fill="#0D0D0D" stroke="#020203" stroke-width="0.2" stroke-linecap="round" stroke-linejoin="round"/>
<path d="M146.726 41.1735C144.315 42.4703 142.33 44.4341 141.008 46.8292C139.687 49.2244 139.085 51.9493 139.276 54.6772C140.794 63.0637 153.749 67.8018 168.175 65.1958L169.503 64.9115L146.726 41.1735Z" fill="#0D0D0D" stroke="#020203" stroke-width="0.2" stroke-linecap="round" stroke-linejoin="round"/>
<path d="M132.924 112.388L128.179 125.133L142.035 119.069L146.781 106.323L132.924 112.388Z" fill="#3F6FD9" stroke="#020203" stroke-width="0.2" stroke-linecap="round" stroke-linejoin="round"/>
<path d="M42.0964 82.8698L37.3036 95.568L47.8382 106.513L52.5835 93.8149L42.0964 82.8698Z" fill="#144CC7" stroke="#020203" stroke-width="0.2" stroke-linecap="round" stroke-linejoin="round"/>
<path d="M66.3908 32.4097L68.479 26.7713L18.6059 8.48224L16.5652 14.1206C13.6231 22.1754 22.4019 32.7415 36.1633 37.8113C49.9246 42.881 63.4487 40.4645 66.3908 32.4097Z" fill="#FFCB45"/>
<path d="M66.3908 32.4097L68.479 26.7713L18.6059 8.48224L16.5652 14.1206C13.6231 22.1754 22.4019 32.7415 36.1633 37.8113C49.9246 42.881 63.4487 40.4645 66.3908 32.4097Z" stroke="#020203" stroke-width="0.2" stroke-linecap="round" stroke-linejoin="round"/>
<path d="M38.2052 32.1729C52.014 37.1954 65.5381 34.7316 68.4802 26.7241C71.4223 18.7167 62.6435 8.1033 48.8821 3.03351C35.1208 -2.03629 21.5492 0.474936 18.6071 8.52975C15.665 16.5846 24.4439 27.4348 38.2052 32.1729Z" fill="#FFF066" stroke="#020203" stroke-width="0.2" stroke-linecap="round" stroke-linejoin="round"/>
<path d="M60.5979 29.1407C53.7327 31.4819 46.2413 31.1949 39.576 28.3353C27.1908 23.834 20.5949 15.0211 22.4456 9.95132C22.8108 9.08478 23.3619 8.30847 24.0594 7.67697C24.7308 7.00569 25.5404 6.48843 26.432 6.16088C33.2972 3.81969 40.7881 4.10664 47.4534 6.96628C59.886 11.4675 66.4345 20.2804 64.6313 25.3028C64.2501 26.1743 63.7022 26.9631 63.0181 27.6246C62.3207 28.286 61.4978 28.8014 60.5979 29.1407V29.1407Z" stroke="#020203" stroke-width="0.2" stroke-linecap="round" stroke-linejoin="round"/>
<path d="M189.911 28.7608L187.396 23.312L139.231 45.6285L141.794 51.1247C145.4 58.8952 159.115 60.1745 172.401 54.0149C185.688 47.8553 193.47 36.5313 189.911 28.7608Z" fill="#FFCB45"/>
<path d="M189.911 28.7608L187.396 23.312L139.231 45.6285L141.794 51.1247C145.4 58.8479 159.115 60.1745 172.401 54.0149C185.688 47.8553 193.47 36.5313 189.911 28.7608Z" stroke="#020203" stroke-width="0.2" stroke-linecap="round" stroke-linejoin="round"/>
<path d="M187.351 23.3127C183.744 15.5422 170.078 14.2628 156.791 20.4224C143.505 26.5819 135.627 37.8587 139.234 45.6292C142.84 53.3997 156.554 54.6791 169.841 48.5196C183.128 42.36 191.005 31.0832 187.351 23.3127Z" fill="#FFF066" stroke="#020203" stroke-width="0.2" stroke-linecap="round" stroke-linejoin="round"/>
<path d="M183.648 24.9705C181.37 20.2324 170.503 18.5265 158.545 24.1175C151.807 26.7839 146.296 31.8477 143.076 38.3319C142.708 39.2041 142.499 40.1347 142.459 41.0801C142.444 42.0374 142.621 42.988 142.981 43.8756C145.258 48.6137 156.125 50.3194 168.083 44.7284C174.809 42.06 180.304 36.9951 183.506 30.514C183.909 29.6517 184.135 28.7172 184.17 27.766C184.185 26.8087 184.008 25.8581 183.648 24.9705V24.9705Z" stroke="#020203" stroke-width="0.2" stroke-linecap="round" stroke-linejoin="round"/>
<path d="M188.259 32.1719L179.196 31.3664C171.508 30.1345 169.041 31.6507 166.81 41.7429L162.872 55.9573L164.817 41.506C166.525 32.0298 165.34 28.8079 157.557 27.0548L148.921 24.1645L157.937 24.97C165.387 25.9177 167.949 24.1172 170.369 14.5935L174.308 0.37915L172.268 14.5935C171.034 23.7381 171.319 27.0548 179.528 29.0922L188.259 32.1719Z" fill="white"/>
<path d="M82.8693 20.8004L77.0327 20.2792C72.2874 19.4737 70.5313 20.2791 69.0603 26.9125L66.5457 35.9149L67.8265 26.4387C68.9179 20.3265 68.1112 18.3365 63.0812 16.9624L57.5296 15.1146L63.3662 15.6358C68.1115 16.2517 69.772 15.1146 71.338 9.00241L73.8531 0L72.5718 9.2394C71.7651 15.1147 71.9549 17.2468 77.3171 18.7157L82.8693 20.8004Z" fill="white"/>
</svg>
