<svg width="15" height="29" viewBox="0 0 15 29" fill="none" xmlns="http://www.w3.org/2000/svg">
<path d="M14.4602 6.89148H14.3008V2.5264C14.3008 1.85636 14.0347 1.21376 13.5609 0.739965C13.0871 0.266174 12.4445 8.35491e-07 11.7744 0H2.5264C2.19463 -1.18195e-06 1.86611 0.0653448 1.55959 0.192307C1.25308 0.319269 0.974568 0.505361 0.739969 0.739957C0.505371 0.974554 0.319278 1.25306 0.192313 1.55958C0.0653492 1.86609 1.18196e-06 2.19461 0 2.52638V26.4736C-4.72781e-07 26.8054 0.0653452 27.1339 0.192308 27.4404C0.319271 27.7469 0.505364 28.0254 0.739961 28.26C0.974558 28.4946 1.25306 28.6807 1.55958 28.8077C1.8661 28.9347 2.19462 29 2.52639 29H11.7744C12.1062 29 12.4347 28.9347 12.7412 28.8077C13.0477 28.6807 13.3263 28.4946 13.5609 28.26C13.7955 28.0254 13.9815 27.7469 14.1085 27.4404C14.2355 27.1339 14.3008 26.8054 14.3008 26.4736V9.99863H14.4602V6.89148Z" fill="#3F3D56"/>
<path d="M11.8573 0.717041H10.6502C10.7057 0.853145 10.7269 1.00081 10.7119 1.14704C10.6969 1.29326 10.6461 1.43355 10.5642 1.55555C10.4822 1.67755 10.3714 1.77752 10.2417 1.84664C10.112 1.91576 9.96725 1.95192 9.82026 1.95193H4.52218C4.37519 1.95192 4.23046 1.91576 4.10073 1.84664C3.97101 1.77752 3.86027 1.67755 3.77828 1.55555C3.69629 1.43355 3.64557 1.29326 3.63057 1.14704C3.61557 1.00081 3.63676 0.853145 3.69227 0.717041H2.56477C2.06439 0.717041 1.58451 0.915814 1.23068 1.26964C0.876862 1.62346 0.678086 2.10334 0.678085 2.60372V26.5158C0.678085 26.7636 0.726886 27.0089 0.821701 27.2378C0.916515 27.4667 1.05549 27.6747 1.23068 27.8499C1.40588 28.0251 1.61386 28.164 1.84277 28.2589C2.07167 28.3537 2.31701 28.4025 2.56477 28.4025H11.8573C12.3577 28.4025 12.8376 28.2037 13.1914 27.8499C13.5452 27.4961 13.744 27.0162 13.744 26.5158V2.60372C13.744 2.35596 13.6952 2.11062 13.6004 1.88172C13.5056 1.65282 13.3666 1.44483 13.1914 1.26964C13.0162 1.09444 12.8082 0.95547 12.5793 0.860656C12.3504 0.765841 12.1051 0.717041 11.8573 0.717041H11.8573ZM11.6545 11.81C11.6541 11.9395 11.6025 12.0636 11.511 12.1551C11.4194 12.2467 11.2953 12.2983 11.1658 12.2987H8.80384C8.67434 12.2983 8.55026 12.2467 8.4587 12.1551C8.36713 12.0636 8.31552 11.9395 8.31515 11.81V11.6878C8.31553 11.5583 8.36713 11.4343 8.4587 11.3427C8.55026 11.2511 8.67434 11.1995 8.80384 11.1991H11.1658C11.2953 11.1995 11.4194 11.2511 11.511 11.3427C11.6025 11.4343 11.6541 11.5583 11.6545 11.6878V11.81ZM11.9192 9.65163C11.9189 9.78112 11.8672 9.9052 11.7757 9.99676C11.6841 10.0883 11.56 10.1399 11.4305 10.1403H2.95992C2.83043 10.1399 2.70635 10.0883 2.61478 9.99676C2.52322 9.9052 2.47161 9.78112 2.47123 9.65163V9.52945C2.47161 9.39996 2.52322 9.27588 2.61478 9.18432C2.70635 9.09275 2.83043 9.04114 2.95992 9.04076H11.4305C11.56 9.04114 11.6841 9.09275 11.7757 9.18432C11.8672 9.27588 11.9189 9.39996 11.9192 9.52945V9.65163ZM11.9192 7.49325C11.9189 7.62274 11.8672 7.74682 11.7757 7.83838C11.6841 7.92995 11.56 7.98156 11.4305 7.98194H2.95992C2.83043 7.98156 2.70635 7.92995 2.61478 7.83839C2.52322 7.74682 2.47161 7.62274 2.47123 7.49325V7.37108C2.47161 7.24158 2.52322 7.1175 2.61478 7.02594C2.70635 6.93437 2.83043 6.88276 2.95992 6.88238H11.4305C11.56 6.88276 11.6841 6.93437 11.7757 7.02594C11.8672 7.1175 11.9189 7.24158 11.9192 7.37108V7.49325ZM11.9192 5.33487C11.9189 5.46436 11.8672 5.58844 11.7757 5.68001C11.6841 5.77157 11.56 5.82318 11.4305 5.82356H2.95992C2.83043 5.82318 2.70635 5.77157 2.61478 5.68001C2.52322 5.58844 2.47161 5.46436 2.47123 5.33487V5.2127C2.47161 5.0832 2.52322 4.95912 2.61478 4.86756C2.70635 4.77599 2.83043 4.72439 2.95992 4.72401H11.4305C11.56 4.72439 11.6841 4.77599 11.7757 4.86756C11.8672 4.95912 11.9189 5.0832 11.9192 5.2127V5.33487Z" fill="white"/>
<path d="M3.14318 9.896C3.30062 9.896 3.42825 9.76837 3.42825 9.61094C3.42825 9.4535 3.30062 9.32587 3.14318 9.32587C2.98574 9.32587 2.85811 9.4535 2.85811 9.61094C2.85811 9.76837 2.98574 9.896 3.14318 9.896Z" fill="white"/>
<path d="M4.07984 9.896C4.23728 9.896 4.36491 9.76837 4.36491 9.61094C4.36491 9.4535 4.23728 9.32587 4.07984 9.32587C3.9224 9.32587 3.79477 9.4535 3.79477 9.61094C3.79477 9.76837 3.9224 9.896 4.07984 9.896Z" fill="white"/>
<path d="M5.0165 9.896C5.17394 9.896 5.30157 9.76837 5.30157 9.61094C5.30157 9.4535 5.17394 9.32587 5.0165 9.32587C4.85906 9.32587 4.73143 9.4535 4.73143 9.61094C4.73143 9.76837 4.85906 9.896 5.0165 9.896Z" fill="white"/>
<path d="M5.95314 9.896C6.11058 9.896 6.23821 9.76837 6.23821 9.61094C6.23821 9.4535 6.11058 9.32587 5.95314 9.32587C5.79571 9.32587 5.66808 9.4535 5.66808 9.61094C5.66808 9.76837 5.79571 9.896 5.95314 9.896Z" fill="white"/>
<path d="M9.00747 12.0543C9.16491 12.0543 9.29253 11.9267 9.29253 11.7693C9.29253 11.6118 9.16491 11.4842 9.00747 11.4842C8.85003 11.4842 8.7224 11.6118 8.7224 11.7693C8.7224 11.9267 8.85003 12.0543 9.00747 12.0543Z" fill="white"/>
<path d="M9.94411 12.0543C10.1016 12.0543 10.2292 11.9267 10.2292 11.7693C10.2292 11.6118 10.1016 11.4842 9.94411 11.4842C9.78667 11.4842 9.65904 11.6118 9.65904 11.7693C9.65904 11.9267 9.78667 12.0543 9.94411 12.0543Z" fill="white"/>
<path d="M10.8808 12.0543C11.0382 12.0543 11.1658 11.9267 11.1658 11.7693C11.1658 11.6118 11.0382 11.4842 10.8808 11.4842C10.7233 11.4842 10.5957 11.6118 10.5957 11.7693C10.5957 11.9267 10.7233 12.0543 10.8808 12.0543Z" fill="white"/>
<path d="M11.9848 15.4629H2.32426C2.0973 15.4629 1.87963 15.553 1.71915 15.7135C1.55866 15.874 1.46851 16.0917 1.46851 16.3186V21.0254C1.46851 21.2524 1.55866 21.4701 1.71915 21.6305C1.87963 21.791 2.0973 21.8812 2.32426 21.8812H11.9848C12.2117 21.8812 12.4294 21.791 12.5899 21.6305C12.7504 21.4701 12.8405 21.2524 12.8405 21.0254V16.3186C12.8405 16.0917 12.7504 15.874 12.5899 15.7135C12.4294 15.5531 12.2117 15.4629 11.9848 15.4629H11.9848ZM2.08524 16.0466C2.10432 16.0432 2.55668 15.9662 2.93125 16.1916C3.30581 16.417 3.44972 16.8527 3.45565 16.8711L3.47079 16.9181L3.42219 16.9268C3.35284 16.9376 3.28273 16.9427 3.21255 16.9421C2.98991 16.9464 2.77018 16.891 2.57615 16.7818C2.2016 16.5564 2.05771 16.1207 2.05177 16.1023L2.03663 16.0553L2.08524 16.0466ZM4.18228 20.4166H2.45925C2.33358 20.4166 2.21306 20.3667 2.1242 20.2778C2.03534 20.189 1.98542 20.0684 1.98542 19.9428C1.98542 19.8171 2.03534 19.6966 2.1242 19.6077C2.21306 19.5189 2.33358 19.4689 2.45925 19.4689H4.18228C4.30795 19.4689 4.42847 19.5189 4.51734 19.6077C4.6062 19.6966 4.65612 19.8171 4.65612 19.9428C4.65612 20.0684 4.6062 20.189 4.51734 20.2778C4.42847 20.3667 4.30795 20.4166 4.18228 20.4166ZM12.0221 20.3305C12.0217 20.4674 11.9671 20.5987 11.8702 20.6955C11.7734 20.7924 11.6421 20.847 11.5052 20.8474H10.2129C10.0759 20.847 9.94468 20.7924 9.84783 20.6955C9.75098 20.5987 9.69639 20.4674 9.69599 20.3305V19.5551C9.69639 19.4181 9.75098 19.2869 9.84783 19.19C9.94468 19.0932 10.0759 19.0386 10.2129 19.0382H11.5052C11.6421 19.0386 11.7734 19.0932 11.8702 19.19C11.9671 19.2869 12.0217 19.4181 12.0221 19.5551L12.0221 20.3305Z" fill="#6A35FF"/>
<path d="M10.6296 20.1707H10.11C10.0729 20.1707 10.0373 20.1855 10.011 20.2117C9.98481 20.2379 9.97008 20.2735 9.97008 20.3106C9.97008 20.3477 9.98481 20.3833 10.011 20.4095C10.0373 20.4358 10.0729 20.4505 10.11 20.4505H10.6296C10.6667 20.4505 10.7022 20.4358 10.7285 20.4095C10.7547 20.3833 10.7694 20.3477 10.7694 20.3106C10.7694 20.2735 10.7547 20.2379 10.7285 20.2117C10.7022 20.1855 10.6667 20.1707 10.6296 20.1707Z" fill="#3F3D56"/>
<path d="M11.5888 20.1707H11.0692C11.0321 20.1707 10.9965 20.1855 10.9703 20.2117C10.9441 20.2379 10.9293 20.2735 10.9293 20.3106C10.9293 20.3477 10.9441 20.3833 10.9703 20.4095C10.9965 20.4358 11.0321 20.4505 11.0692 20.4505H11.5888C11.6259 20.4505 11.6615 20.4358 11.6877 20.4095C11.7139 20.3833 11.7287 20.3477 11.7287 20.3106C11.7287 20.2735 11.7139 20.2379 11.6877 20.2117C11.6615 20.1855 11.6259 20.1707 11.5888 20.1707Z" fill="#3F3D56"/>
<path d="M10.6295 19.7758H10.1099C10.0728 19.7758 10.0372 19.7905 10.011 19.8167C9.98472 19.843 9.96999 19.8785 9.96999 19.9156C9.96999 19.9527 9.98472 19.9883 10.011 20.0146C10.0372 20.0408 10.0728 20.0555 10.1099 20.0555H10.6295C10.6666 20.0555 10.7021 20.0408 10.7284 20.0146C10.7546 19.9883 10.7694 19.9527 10.7694 19.9156C10.7694 19.8785 10.7546 19.843 10.7284 19.8167C10.7021 19.7905 10.6666 19.7758 10.6295 19.7758Z" fill="#3F3D56"/>
<path d="M11.5887 19.7758H11.0691C11.032 19.7758 10.9964 19.7905 10.9702 19.8167C10.944 19.843 10.9292 19.8785 10.9292 19.9156C10.9292 19.9527 10.944 19.9883 10.9702 20.0146C10.9964 20.0408 11.032 20.0555 11.0691 20.0555H11.5887C11.6258 20.0555 11.6614 20.0408 11.6876 20.0146C11.7139 19.9883 11.7286 19.9527 11.7286 19.9156C11.7286 19.8785 11.7139 19.843 11.6876 19.8167C11.6614 19.7905 11.6258 19.7758 11.5887 19.7758H11.5887Z" fill="#3F3D56"/>
<path d="M10.6295 19.3889H10.1099C10.0728 19.3889 10.0372 19.4037 10.011 19.4299C9.98472 19.4561 9.96999 19.4917 9.96999 19.5288C9.96999 19.5659 9.98472 19.6015 10.011 19.6277C10.0372 19.654 10.0728 19.6687 10.1099 19.6687H10.6295C10.6666 19.6687 10.7021 19.654 10.7284 19.6277C10.7546 19.6015 10.7694 19.5659 10.7694 19.5288C10.7694 19.4917 10.7546 19.4561 10.7284 19.4299C10.7021 19.4037 10.6666 19.3889 10.6295 19.3889Z" fill="#3F3D56"/>
<path d="M11.5887 19.3889H11.0691C11.032 19.3889 10.9964 19.4037 10.9702 19.4299C10.944 19.4561 10.9292 19.4917 10.9292 19.5288C10.9292 19.5659 10.944 19.6015 10.9702 19.6277C10.9964 19.654 11.032 19.6687 11.0691 19.6687H11.5887C11.6258 19.6687 11.6614 19.654 11.6876 19.6277C11.7139 19.6015 11.7286 19.5659 11.7286 19.5288C11.7286 19.4917 11.7139 19.4561 11.6876 19.4299C11.6614 19.4037 11.6258 19.3889 11.5887 19.3889H11.5887Z" fill="#3F3D56"/>
</svg>
