<svg width="191" height="150" viewBox="0 0 191 150" fill="none" xmlns="http://www.w3.org/2000/svg">
<path d="M133.827 130.398L23.8702 147.115L1.44238 33.7892L11.136 32.3481L111.477 17.3077L132.215 122.197L133.827 130.398Z" fill="#FF784B" stroke="#0D0D0D" stroke-width="0.3" stroke-linecap="round" stroke-linejoin="round"/>
<path fill-rule="evenodd" clip-rule="evenodd" d="M132.614 124.227L28.6172 140.323L7.22046 32.9299L11.1361 32.3475L111.477 17.3073L132.215 122.196L132.614 124.227Z" fill="#0D0D0D"/>
<path d="M132.614 124.227L132.68 124.654C132.797 124.636 132.901 124.571 132.968 124.475C133.036 124.379 133.061 124.259 133.039 124.143L132.614 124.227ZM28.6171 140.323L28.1927 140.408C28.238 140.635 28.4543 140.786 28.6832 140.751L28.6171 140.323ZM7.22029 32.9299L7.15666 32.5018C7.03951 32.5191 6.93463 32.5837 6.86647 32.6807C6.79827 32.7776 6.7728 32.8982 6.79594 33.0144L7.22029 32.9299ZM11.1359 32.3475L11.1996 32.7756H11.2001L11.1359 32.3475ZM111.476 17.3073L111.901 17.2234C111.856 16.9966 111.641 16.8452 111.412 16.8794L111.476 17.3073ZM132.215 122.196L132.64 122.113V122.112L132.215 122.196ZM132.548 123.799L28.5509 139.896L28.6832 140.751L132.68 124.654L132.548 123.799ZM29.0414 140.239L7.64465 32.8451L6.79594 33.0144L28.1927 140.408L29.0414 140.239ZM7.28393 33.3577L11.1996 32.7756L11.0723 31.9197L7.15666 32.5018L7.28393 33.3577ZM11.2001 32.7756L111.541 17.7352L111.412 16.8794L11.0718 31.9197L11.2001 32.7756ZM111.052 17.3913L131.791 122.28L132.64 122.112L111.901 17.2234L111.052 17.3913ZM131.791 122.28L132.189 124.31L133.039 124.143L132.64 122.113L131.791 122.28Z" fill="#0D0D0D"/>
<path d="M144.618 118.465L31.5512 135.554L8.46216 19.733L121.609 2.8848L144.618 118.465Z" fill="#FFDF0D" stroke="#0D0D0D" stroke-width="0.3" stroke-linejoin="round"/>
<mask id="mask0_505_334" style="mask-type:alpha" maskUnits="userSpaceOnUse" x="8" y="2" width="137" height="134">
<path d="M144.619 118.178L31.5515 135.267L8.4624 19.4455L121.61 2.59729L144.619 118.178Z" fill="#FFDF0D"/>
</mask>
<g mask="url(#mask0_505_334)">
<path d="M79.3271 128.077L134.135 37.1735L122.596 7.21155L41.8271 135.288L79.3271 128.077Z" fill="white"/>
<path d="M52.9799 81.7996L37.3735 84.1298L34.407 69.3173L50.0404 66.9603L52.9799 81.7996Z" fill="white" stroke="#0D0D0D" stroke-width="0.3" stroke-linecap="round" stroke-linejoin="round"/>
<path d="M58.8969 111.474L43.2903 113.777L40.3508 98.9648L55.9572 96.6346L58.8969 111.474Z" fill="white" stroke="#0D0D0D" stroke-width="0.3" stroke-linecap="round" stroke-linejoin="round"/>
<path d="M125.331 101.571L66.1645 110.357L63.2251 95.5441L122.364 86.7582L125.331 101.571Z" stroke="#0D0D0D" stroke-width="0.3" stroke-linejoin="round"/>
<path d="M119.42 71.8921L60.2547 80.7046L57.3149 65.9189L116.454 57.1064L119.42 71.8921Z" stroke="#0D0D0D" stroke-width="0.3" stroke-linejoin="round"/>
<path d="M113.516 42.2868L54.3498 51.0724L51.4104 36.2599L110.549 27.4208L113.516 42.2868Z" stroke="#0D0D0D" stroke-width="0.3" stroke-linejoin="round"/>
<path d="M47.0812 52.1717L31.4745 54.475L28.5083 39.6625L44.1414 37.3592L47.0812 52.1717Z" fill="white" stroke="#0D0D0D" stroke-width="0.3" stroke-linecap="round" stroke-linejoin="round"/>
</g>
<path fill-rule="evenodd" clip-rule="evenodd" d="M131.117 27.3701C124.498 30.3149 118.874 35.1221 114.927 41.208C110.981 47.2937 108.881 54.3971 108.883 61.6556C108.935 71.4379 112.776 80.8176 119.597 87.8145C126.418 94.8114 135.685 98.8778 145.441 99.1556L131.117 27.3701Z" fill="#0D0D0D" stroke="#0D0D0D" stroke-width="0.3" stroke-linecap="round" stroke-linejoin="round"/>
<path fill-rule="evenodd" clip-rule="evenodd" d="M151.266 17.9951C161.218 17.9808 170.77 21.9185 177.831 28.9464C184.893 35.9745 188.89 45.5205 188.946 55.4953C188.925 65.4954 184.945 75.0783 177.88 82.1396C170.815 89.2008 161.243 93.1628 151.266 93.1556C141.285 93.1698 131.706 89.2112 124.635 82.1491C117.564 75.087 113.581 65.5 113.559 55.4953C113.616 45.5159 117.616 35.9658 124.684 28.9369C131.751 21.9082 141.31 17.9737 151.266 17.9951Z" fill="white" stroke="#0D0D0D" stroke-width="0.3" stroke-linecap="round" stroke-linejoin="round"/>
<path d="M151.259 27.0209C155.014 27.0138 158.734 27.748 162.206 29.1819C165.678 30.6156 168.834 32.7208 171.494 35.3772C174.154 38.0337 176.266 41.1894 177.71 44.664C179.153 48.1388 179.9 51.864 179.907 55.6278C179.903 59.394 179.159 63.1223 177.717 66.6C176.276 70.0777 174.164 73.2364 171.503 75.8957C168.843 78.555 165.685 80.6625 162.212 82.0979C158.738 83.5336 155.016 84.2689 151.259 84.2619C147.5 84.2726 143.775 83.5399 140.299 82.106C136.822 80.672 133.661 78.5648 130.998 75.9052C128.334 73.2456 126.22 70.0858 124.777 66.6064C123.333 63.1269 122.588 59.396 122.585 55.6278C122.592 51.8616 123.34 48.1341 124.784 44.6579C126.23 41.1814 128.344 38.0247 131.007 35.368C133.67 32.711 136.829 30.6066 140.305 29.1744C143.78 27.742 147.502 27.0103 151.259 27.0209Z" fill="#9772FF" stroke="#0D0D0D" stroke-width="0.3" stroke-linecap="round" stroke-linejoin="round"/>
<path fill-rule="evenodd" clip-rule="evenodd" d="M147.938 62.1374H154.539V39.2353H147.938V62.1374Z" fill="white" stroke="#0D0D0D" stroke-width="0.3" stroke-linecap="round" stroke-linejoin="round"/>
<path fill-rule="evenodd" clip-rule="evenodd" d="M147.887 72.0496H154.595V65.4335H147.887V72.0496Z" fill="white" stroke="#0D0D0D" stroke-width="0.3" stroke-linecap="round" stroke-linejoin="round"/>
</svg>
