<svg width="1464" height="1464" viewBox="0 0 1464 1464" fill="none" xmlns="http://www.w3.org/2000/svg">
<path d="M1464 732C1464 1136.27 1136.27 1464 732 1464C327.728 1464 0 1136.27 0 732C0 327.728 327.728 0 732 0C1136.27 0 1464 327.728 1464 732Z" fill="white"/>
<path d="M253 766.091V351L612.49 558.545V696.909L372.83 558.545V835.273L253 766.091Z" fill="#00B0FF"/>
<path d="M612.49 558.545L971.979 351V766.091L732.32 904.454L612.49 835.273L852.15 696.909V558.545L612.49 696.909V558.545Z" fill="#0081CB"/>
<path d="M612.49 835.273V973.636L852.15 1112V973.636L612.49 835.273Z" fill="#00B0FF"/>
<path d="M852.15 1112L1211.64 904.454V627.727L1091.81 696.909V835.273L852.15 973.636V1112ZM1091.81 558.545V420.182L1211.64 351V489.364L1091.81 558.545Z" fill="#0081CB"/>
</svg>
